<svg width="104" height="104" viewBox="0 0 104 104" fill="none" xmlns="http://www.w3.org/2000/svg">
<g clip-path="url(#clip0_22_17)">
<path fill-rule="evenodd" clip-rule="evenodd" d="M46.0649 23.0053C48.2711 27.4594 46.4488 32.8587 41.9947 35.0649C38.0778 37.0051 33.8502 39.6562 30.3618 42.6882C26.7703 45.8098 24.6065 48.7743 23.7704 51.1978C23.115 53.0976 23.1213 54.9153 24.8201 57.3532C26.8643 60.2868 31.6094 64.363 41.6195 68.7599C46.1704 70.7589 48.2391 76.0686 46.2401 80.6195C44.2411 85.1704 38.9314 87.2391 34.3805 85.2402C22.9906 80.2371 14.8065 74.4674 10.0518 67.6438C4.95155 60.3244 4.28919 52.4734 6.75459 45.3273C9.03931 38.705 13.786 33.2465 18.5538 29.1025C23.4248 24.8689 29.0055 21.4117 34.0052 18.9352C38.4593 16.7289 43.8586 18.5512 46.0649 23.0053Z" fill="black"/>
<path fill-rule="evenodd" clip-rule="evenodd" d="M5 54C5 49.0294 9.02944 45 14 45H90.5C95.4706 45 99.5 49.0294 99.5 54C99.5 58.9706 95.4706 63 90.5 63H14C9.02944 63 5 58.9706 5 54Z" fill="black"/>
</g>
<defs>
<clipPath id="clip0_22_17">
<rect width="104" height="104" fill="white"/>
</clipPath>
</defs>
</svg>
