<svg width="240" height="240" viewBox="0 0 240 240" fill="none" xmlns="http://www.w3.org/2000/svg">
<path fill-rule="evenodd" clip-rule="evenodd" d="M118.092 17.7274C123.272 10.0824 132.031 2.49441 144.043 5.79178C154.001 8.52548 158.542 17.8455 160.7 25.8707C161.778 29.8787 162.484 34.3322 162.905 39.0342C167.204 35.2029 172.189 31.8707 177.959 29.2671C183.022 26.9825 189.134 25.5985 194.905 28.1817C200.856 30.8456 203.489 36.3706 204.629 41.0095C206.824 49.9444 205.293 62.6248 202.646 75.3205C198.611 94.6693 191.062 117.984 183.67 138.021C188.029 136.177 192.416 134.453 196.292 133.654C200.61 132.763 207.331 132.427 212.255 137.909C216.335 142.451 217.012 148.915 217.012 154.471C217.012 163.875 214.296 171.499 209.532 177.917C204.971 184.061 198.806 188.713 192.644 192.785C189.645 194.767 186.598 196.657 183.527 198.562C173.427 204.826 163.058 211.257 153.208 221.702C152.804 222.131 152.358 222.519 151.877 222.861C133.49 235.941 111.256 236.253 93.2369 230.666C84.1744 227.856 75.8273 223.465 69.1362 218.06C62.5286 212.722 57.0223 205.967 54.5747 198.247C53.3238 194.302 51.6159 189.218 49.6387 183.332C43.383 164.71 34.4315 138.063 28.7309 114.08C24.9999 98.3838 22.3836 82.7791 23.1264 70.7528C23.4944 64.7949 24.7389 58.582 28.0702 53.633C31.8018 48.0893 37.6025 44.9707 44.6604 44.9707C49.451 44.9707 53.2226 47.4876 55.6025 49.5287C58.1636 51.7252 60.4722 54.5465 62.4862 57.4091C62.8274 57.894 63.1667 58.3897 63.504 58.895C65.1439 51.0261 67.5088 43.0775 70.7379 36.4345C74.1138 29.4894 79.5926 21.5768 88.3699 19.267C94.4501 17.667 99.662 19.9689 103.231 23.4003C106.355 26.4051 108.511 30.4562 110.075 34.2995C112.256 28.2015 114.898 22.4426 118.092 17.7274ZM100.42 81.2844C100.177 84.063 100.017 86.6203 99.9418 88.8661C99.8366 92.0113 99.8644 95.2662 100.319 97.6547C100.403 98.0921 100.571 98.9234 100.891 99.7935C101.009 100.115 101.425 101.242 102.34 102.407C103.021 103.273 106.762 107.408 112.511 105.361C114.683 104.587 115.975 103.207 116.581 102.442C117.222 101.633 117.591 100.883 117.781 100.456C118.159 99.6061 118.334 98.8667 118.407 98.5387C118.57 97.8015 118.644 97.1031 118.683 96.6589C118.846 94.8414 118.862 92.021 118.783 88.8482C118.729 86.7098 118.628 84.2464 118.471 81.5572C118.555 80.671 118.65 79.7551 118.754 78.8126C119.677 70.4728 121.344 60.3943 123.808 50.9244C126.319 41.2739 129.462 33.0364 132.994 27.8234C136.612 22.4841 138.54 22.947 139.278 23.1497C139.519 23.216 141.558 24.0042 143.318 30.5457C144.948 36.6093 145.591 45.1262 145.375 55.1263C145.303 58.4604 145.138 61.89 144.897 65.3617C144.021 67.5097 143.24 69.6679 142.546 71.817C137.199 88.3716 136.604 105.449 137.706 116.374C138.15 120.777 141.729 124.203 146.147 124.456C150.565 124.709 154.511 121.712 155.454 117.388C158.189 104.847 161.218 87.0955 162.622 69.6899C167.356 59.2569 174.621 50.5208 185.362 45.6742C186.082 45.3494 186.645 45.1441 187.073 45.0145C187.098 45.104 187.123 45.2003 187.148 45.3036C188.268 49.8614 187.686 58.8873 185.025 71.6458C179.88 96.3141 168.415 128.681 159.321 151.086C157.973 154.408 158.725 158.213 161.235 160.773C163.745 163.332 167.535 164.158 170.883 162.874C176.568 160.694 181.694 158.475 186.046 156.592C187.1 156.135 188.109 155.698 189.069 155.287C193.554 153.364 196.653 152.141 198.886 151.534C198.957 152.262 199.012 153.223 199.012 154.471C199.012 160.066 197.507 163.917 195.079 167.188C192.448 170.732 188.448 173.983 182.721 177.768C180.419 179.289 177.85 180.877 175.089 182.584C164.951 188.851 152.235 196.711 140.767 208.664C128.255 217.194 112.548 217.808 98.5674 213.473C91.5032 211.283 85.2245 207.917 80.4472 204.058C75.5865 200.131 72.7819 196.115 71.7328 192.807C70.3479 188.439 68.5279 183.02 66.4625 176.87C60.2176 158.274 51.7293 132.999 46.243 109.918C42.5723 94.4749 40.5237 81.0654 41.0922 71.8625C41.3798 67.2056 42.2851 64.7501 43.0025 63.6843L43.0151 63.6656C43.2125 63.3721 43.3486 63.1697 43.7293 63.062C43.7776 63.1015 43.8293 63.1447 43.8843 63.1919C44.8554 64.0247 46.1785 65.512 47.7648 67.7666C50.9084 72.2347 54.1795 78.4043 57.0238 84.6421C58.3807 87.6178 59.5948 90.508 60.6134 93.1076C60.719 94.6244 60.8715 96.072 61.0763 97.4244C61.4809 100.097 62.2682 103.772 64.3077 106.661C64.6253 107.111 65.0783 107.714 65.6495 108.31L65.6692 108.33C66.0129 108.69 67.4338 110.176 69.76 110.915C71.1931 111.371 73.4596 111.687 75.9379 110.699C78.4225 109.707 79.8546 107.909 80.5843 106.573C81.7623 104.415 81.7509 102.348 81.7482 101.863L81.7481 101.833C81.7422 100.409 81.4511 99.0325 81.2637 98.2201C81.0338 97.2235 80.7254 96.1225 80.3746 94.9843C79.8722 93.354 79.2226 91.4538 78.4528 89.3738C78.4335 88.6616 78.4242 87.911 78.426 87.1239C78.4403 80.8179 79.1618 72.9135 80.6316 65.0648C82.1127 57.1558 84.2661 49.7771 86.9266 44.3037C88.808 40.4334 90.4759 38.4561 91.6141 37.4914C92.1297 38.2966 92.7793 39.5226 93.4903 41.3022C95.845 47.1956 97.6383 55.9356 98.8628 65.2111C99.6069 70.8479 100.11 76.4295 100.42 81.2844ZM63.7955 102.612C63.7953 102.611 63.7933 102.6 63.7903 102.579C63.7942 102.601 63.7958 102.612 63.7955 102.612ZM43.2021 62.6872C43.202 62.6858 43.2214 62.6948 43.2607 62.7185C43.2219 62.7004 43.2022 62.6885 43.2021 62.6872ZM201.06 151.125C201.059 151.126 201.039 151.126 201.003 151.124C201.043 151.123 201.061 151.124 201.06 151.125ZM188.181 44.7948C188.181 44.795 188.175 44.795 188.164 44.7942C188.175 44.7942 188.181 44.7947 188.181 44.7948ZM186.707 44.0078C186.679 43.9716 186.666 43.9498 186.667 43.9479C186.668 43.9461 186.682 43.9642 186.707 44.0078ZM100.751 95.0976C100.749 95.12 100.747 95.1305 100.747 95.13C100.747 95.1295 100.748 95.1184 100.751 95.0976ZM118.003 94.2962C118.011 94.332 118.015 94.3514 118.015 94.3517C118.015 94.3519 118.011 94.3342 118.003 94.2962Z" fill="black"/>
</svg>
